<svg width="485" height="86" viewBox="0 0 485 86" fill="none" xmlns="http://www.w3.org/2000/svg">
    <path d="M301.073 42.5046C301.073 19.03 319.572 0 342.392 0H443.511C466.331 0 484.831 19.03 484.831 42.5046C484.831 65.9792 466.331 85.0092 443.511 85.0092H342.392C319.572 85.0092 301.073 65.9792 301.073 42.5046Z" fill="url(#paint0_linear)"/>
    <path fill-rule="evenodd" clip-rule="evenodd" d="M343.184 66.5526C355.92 66.5526 366.245 56.1315 366.245 43.2763C366.245 30.4212 355.92 20 343.184 20C330.448 20 320.123 30.4212 320.123 43.2763C320.123 56.1315 330.448 66.5526 343.184 66.5526ZM343.184 54.4081C349.275 54.4081 354.213 49.4241 354.213 43.2759C354.213 37.1278 349.275 32.1438 343.184 32.1438C337.093 32.1438 332.155 37.1278 332.155 43.2759C332.155 49.4241 337.093 54.4081 343.184 54.4081Z" fill="white"/>
    <path d="M393.317 20C380.583 20 370.256 30.4238 370.256 43.2764V60.4806C370.256 63.8202 372.963 66.5527 376.272 66.5527C379.58 66.5527 382.287 63.8202 382.287 60.4806V43.2764C382.287 37.1031 387.2 32.1442 393.317 32.1442C399.433 32.1442 404.346 37.1031 404.346 43.2764V60.4806C404.346 63.8202 407.053 66.5527 410.362 66.5527C413.67 66.5527 416.378 63.8202 416.378 60.4806V43.2764C416.378 30.4238 406.05 20 393.317 20Z" fill="white"/>
    <path d="M466.51 43.2764C466.51 30.4238 456.183 20 443.449 20C430.715 20 420.388 30.4238 420.388 43.2764C420.388 43.4788 420.388 43.6812 420.388 43.9848C420.388 44.086 420.388 44.1872 420.388 44.2884C420.388 44.6932 420.388 44.9968 420.488 45.3004C421.491 57.2422 431.417 66.5527 443.449 66.5527C446.758 66.5527 449.465 63.8202 449.465 60.4806C449.465 57.141 446.758 54.4085 443.449 54.4085C440.04 54.4085 436.932 52.7893 434.926 50.3605H460.494C463.803 50.3605 466.51 47.628 466.51 44.2884C466.51 43.9848 466.51 43.58 466.51 43.2764ZM443.449 32.1442C447.76 32.1442 451.47 34.573 453.275 38.2163H433.623C435.428 34.573 439.138 32.1442 443.449 32.1442Z" fill="white"/>
    <path d="M366.245 29.4455C366.245 27.4828 366.001 25.5201 365.636 23.5574C365.636 23.5574 365.636 23.5574 365.636 23.4348C365.392 22.2081 365.149 21.1041 364.783 20L353.211 28.0962L364.296 40.2403C365.514 36.9283 366.245 33.2482 366.245 29.4455Z" fill="white"/>
    <path d="M320.123 29.4455C320.123 27.4828 320.367 25.5201 320.733 23.5574C320.733 23.5574 320.733 23.5574 320.733 23.4348C320.976 22.2081 321.22 21.1041 321.585 20L333.158 28.0962L322.073 40.2403C320.854 36.9283 320.123 33.2482 320.123 29.4455Z" fill="white"/>
    <path d="M345.098 45.2083L347.491 58.7325L354.669 55.6412V49.4587L345.098 45.2083Z" fill="white"/>
    <path d="M361.232 33.1563C361.232 37.6277 353.151 41.2524 343.184 41.2524C333.217 41.2524 325.136 37.6277 325.136 33.1563C325.136 28.6849 333.217 25.0602 343.184 25.0602C353.151 25.0602 361.232 28.6849 361.232 33.1563Z" fill="white"/>
    <path d="M0.168823 12.1724H11.7502L28.3502 48.3063L45.0274 12.1724H56.5316V66.1417H45.3363V35.4896L31.0525 66.1417H25.6479L11.4414 35.4896V66.1417H0.168823V12.1724Z" fill="#314452"/>
    <path d="M83.0886 67.2998C78.6104 67.2998 74.6728 66.502 71.2756 64.9063C67.9298 63.2592 65.3305 60.9686 63.4774 58.0347C61.6759 55.0493 60.7751 51.5748 60.7751 47.6114C60.7751 43.751 61.6759 40.328 63.4774 37.3426C65.3305 34.3572 67.9298 32.0409 71.2756 30.3938C74.6728 28.7466 78.6104 27.9231 83.0886 27.9231C87.5152 27.9231 91.4014 28.7466 94.7472 30.3938C98.1444 32.0409 100.744 34.3572 102.545 37.3426C104.398 40.328 105.325 43.751 105.325 47.6114C105.325 51.5748 104.398 55.0493 102.545 58.0347C100.744 60.9686 98.1701 63.2592 94.8244 64.9063C91.4787 66.502 87.5667 67.2998 83.0886 67.2998ZM83.0886 58.1891C86.2284 58.1891 88.7249 57.2369 90.5779 55.3324C92.4309 53.3764 93.3574 50.8027 93.3574 47.6114C93.3574 44.3172 92.4309 41.7435 90.5779 39.8905C88.7763 37.986 86.2799 37.0338 83.0886 37.0338C79.8973 37.0338 77.3751 37.986 75.5221 39.8905C73.669 41.7435 72.7425 44.3172 72.7425 47.6114C72.7425 50.8027 73.669 53.3764 75.5221 55.3324C77.4266 57.2369 79.9487 58.1891 83.0886 58.1891Z" fill="#314452"/>
    <path d="M109.541 29.0812H120.813V33.6365C122.512 31.732 124.519 30.3165 126.835 29.39C129.203 28.4121 131.674 27.9231 134.248 27.9231C139.292 27.9231 143.049 29.2871 145.52 32.0152C148.042 34.6917 149.303 38.3206 149.303 42.9017V66.1417H137.645V44.2142C137.645 39.4272 135.431 37.0338 131.005 37.0338C129.049 37.0338 127.222 37.5228 125.523 38.5007C123.824 39.4272 122.383 40.817 121.199 42.67V66.1417H109.541V29.0812Z" fill="#314452"/>
    <path d="M169.936 67.2998C167.157 67.2998 164.171 66.991 160.98 66.3733C157.84 65.8071 155.37 64.9835 153.568 63.9026V54.7919C155.627 56.0272 158.098 57.031 160.98 57.8031C163.863 58.5751 166.539 58.9612 169.01 58.9612C171.12 58.9612 172.664 58.781 173.642 58.4207C174.62 58.0604 175.109 57.3913 175.109 56.4133C175.109 55.6412 174.826 55.0235 174.26 54.5603C173.694 54.0455 172.819 53.608 171.635 53.2477C170.503 52.8359 168.598 52.244 165.921 51.4719C162.782 50.5454 160.311 49.6189 158.509 48.6924C156.759 47.7144 155.421 46.5048 154.495 45.0635C153.619 43.6223 153.182 41.7693 153.182 39.5045C153.182 35.644 154.7 32.7615 157.737 30.857C160.826 28.901 164.995 27.9231 170.245 27.9231C172.819 27.9231 175.47 28.2062 178.198 28.7724C180.977 29.2871 183.113 29.982 184.606 30.857V39.7361C183.113 38.7581 181.157 37.9603 178.738 37.3426C176.37 36.7249 174.054 36.4161 171.789 36.4161C169.679 36.4161 168.032 36.622 166.848 37.0338C165.716 37.4455 165.149 38.2176 165.149 39.35C165.149 40.328 165.69 41.0744 166.771 41.5891C167.903 42.1038 169.988 42.7472 173.025 43.5193L174.569 43.9054C177.812 44.7804 180.334 45.7584 182.135 46.8393C183.937 47.8688 185.198 49.1299 185.919 50.6226C186.691 52.0638 187.077 53.8911 187.077 56.1045C187.077 59.5017 185.61 62.2297 182.676 64.2886C179.742 66.2961 175.495 67.2998 169.936 67.2998Z" fill="#314452"/>
    <path d="M205.704 67.2998C201.38 67.2998 198.086 66.1159 195.821 63.7482C193.608 61.3289 192.501 57.9832 192.501 53.711V37.497H187.097V29.0812H192.501V17.9631H204.16V29.0812H212.885V37.497H204.16V52.1668C204.16 54.3286 204.572 55.8986 205.395 56.8765C206.219 57.8031 207.686 58.2663 209.796 58.2663C211.495 58.2663 213.116 57.8545 214.66 57.031V65.7556C212.293 66.7851 209.307 67.2998 205.704 67.2998Z" fill="#314452"/>
    <path d="M239.037 67.2998C231.934 67.2998 226.349 65.6012 222.282 62.204C218.216 58.7553 216.183 53.9426 216.183 47.7658C216.183 41.6406 217.984 36.8021 221.588 33.2505C225.242 29.6989 230.441 27.9231 237.184 27.9231C241.611 27.9231 245.368 28.7466 248.456 30.3938C251.545 32.0409 253.887 34.3314 255.482 37.2654C257.078 40.1479 257.876 43.4164 257.876 47.071V51.7807H227.301C228.125 56.5162 232.551 58.884 240.581 58.884C242.949 58.884 245.394 58.6781 247.916 58.2663C250.438 57.8545 252.626 57.2883 254.479 56.5677V64.7519C252.677 65.524 250.361 66.1417 247.53 66.6049C244.699 67.0682 241.868 67.2998 239.037 67.2998ZM246.835 44.2142C246.681 41.7435 245.754 39.839 244.055 38.5007C242.357 37.111 240.015 36.4161 237.029 36.4161C234.095 36.4161 231.779 37.111 230.081 38.5007C228.382 39.8905 227.455 41.795 227.301 44.2142H246.835Z" fill="#314452"/>
    <path d="M262.008 29.0812H273.28V34.4086C274.773 32.6071 276.858 31.2431 279.534 30.3165C282.211 29.3386 285.248 28.8496 288.645 28.8496V37.7286C285.093 37.7286 281.954 38.2691 279.225 39.35C276.549 40.431 274.696 42.0781 273.666 44.2914V66.1417H262.008V29.0812Z" fill="#314452"/>
    <defs>
        <linearGradient id="paint0_linear" x1="423.293" y1="85.0092" x2="423.293" y2="0" gradientUnits="userSpaceOnUse">
            <stop stop-color="#2196F3"/>
            <stop offset="1" stop-color="#4BA4FA"/>
        </linearGradient>
    </defs>
</svg>
