<svg width="32" height="32" viewBox="0 0 32 32" xmlns="http://www.w3.org/2000/svg" class="device-btn-icon"><path fill-rule="evenodd" clip-rule="evenodd" d="M4.389 20.176H28V4.78a.701.701 0 00-.694-.704H5.083a.701.701 0 00-.694.704v15.395zm0 1.407v.704c0 .387.312.703.694.703h22.223a.701.701 0 00.694-.703v-.704H4.389zm8.53 5.01h6.552l-1.042-2.195h-4.47l-1.04 2.195zM20.36 28h-8.333a.695.695 0 01-.549-.27.715.715 0 01-.125-.604l1.172-2.728H5.083C3.935 24.398 3 23.45 3 22.287V4.78c0-1.164.935-2.111 2.083-2.111h22.223c1.148 0 2.083.947 2.083 2.11v17.507c0 1.164-.935 2.11-2.083 2.11h-7.444l1.173 2.73a.715.715 0 01-.125.603.695.695 0 01-.549.27z"></path></svg>