<svg width="32" height="32" viewBox="0 0 32 32" xmlns="http://www.w3.org/2000/svg" class="device-btn-icon"><path fill-rule="evenodd" clip-rule="evenodd" d="M16.667 6.667H14a.667.667 0 010-1.334h2.667a.667.667 0 010 1.334zm0 18.666H14A.667.667 0 0114 24h2.667a.667.667 0 010 1.333zM7.333 4c-.366 0-.666.3-.666.667V26c0 .367.3.667.667.667h16c.366 0 .666-.3.666-.667V4.667C24 4.3 23.7 4 23.334 4h-16zm16 24h-16c-1.102 0-2-.897-2-2V4.667c0-1.103.898-2 2-2h16c1.103 0 2 .897 2 2V26c0 1.103-.897 2-2 2z"></path></svg>