<svg viewBox="0 0 22 22" class="header-button-icon header-button-icon_cart"><path d="M19.45 15.24a.86.86 0 00.848-.719l1.69-10.14a.86.86 0 00-.848-1H4.91L4.229.65A.86.86 0 003.395 0H.858a.86.86 0 100 1.719h1.865l.673 2.696L5.07 14.45v2.6a2.553 2.553 0 00-1.69 2.4A2.552 2.552 0 005.93 22c1.744 0 2.981-1.726 2.41-3.38h7.01c-.572 1.655.667 3.38 2.41 3.38a2.552 2.552 0 002.55-2.55 2.552 2.552 0 00-2.55-2.55H6.79v-1.66H19.45zm.676-10.141l-1.404 8.422H6.658L5.254 5.099h14.872zM6.76 19.45a.832.832 0 01-1.661 0 .832.832 0 011.661 0zm11 .831a.832.832 0 010-1.661.832.832 0 010 1.661z"></path></svg>